<?xml version="1.0" encoding="UTF-8" standalone="no"?>
<!-- Created with Inkscape (http://www.inkscape.org/) -->

<svg
   xmlns:dc="http://purl.org/dc/elements/1.1/"
   xmlns:cc="http://creativecommons.org/ns#"
   xmlns:rdf="http://www.w3.org/1999/02/22-rdf-syntax-ns#"
   xmlns:svg="http://www.w3.org/2000/svg"
   xmlns="http://www.w3.org/2000/svg"
   xmlns:sodipodi="http://sodipodi.sourceforge.net/DTD/sodipodi-0.dtd"
   xmlns:inkscape="http://www.inkscape.org/namespaces/inkscape"
   version="1.1"
   width="60"
   height="70"
   id="svg2"
   inkscape:version="0.48.4 r9939"
   sodipodi:docname="portrait_male.svg">
  <sodipodi:namedview
     pagecolor="#ffffff"
     bordercolor="#666666"
     borderopacity="1"
     objecttolerance="10"
     gridtolerance="10"
     guidetolerance="10"
     inkscape:pageopacity="0"
     inkscape:pageshadow="2"
     inkscape:window-width="1366"
     inkscape:window-height="691"
     id="namedview3886"
     showgrid="false"
     inkscape:zoom="3.3714286"
     inkscape:cx="110.35497"
     inkscape:cy="31.371647"
     inkscape:window-x="0"
     inkscape:window-y="24"
     inkscape:window-maximized="1"
     inkscape:current-layer="svg2" />
  <defs
     id="defs4" />
  <metadata
     id="metadata7">
    <rdf:RDF>
      <cc:Work
         rdf:about="">
        <dc:format>image/svg+xml</dc:format>
        <dc:type
           rdf:resource="http://purl.org/dc/dcmitype/StillImage" />
        <dc:title />
      </cc:Work>
    </rdf:RDF>
  </metadata>
  <g
     id="g3890">
    <rect
       y="0.037076276"
       x="0.037076369"
       height="70.067795"
       width="59.948605"
       id="rect3888"
       style="fill:#ffffff;fill-opacity:1;stroke:none" />
    <g
       id="layer1"
       transform="translate(0,-982.36211)">
      <path
         style="fill:#000000;fill-opacity:1;stroke:none"
         id="path3766-0"
         d="m 7.6974798,1038.2708 c 0,0 0.87448,-2.6849 1.9310199,-3.5725 0.7350203,-0.6175 2.7409403,-0.9732 2.7409403,-0.9732 l -0.50508,-1.1364 c 0,0 2.55632,-4.456 4.04061,-5.6859 0.48641,-0.4031 1.51016,-1.2589 1.51016,-1.2589 0,0 -0.2369,-1.2153 0.14397,-1.913 0.46754,-0.8565 0.99481,-0.9594 1.15536,-1.4142 0.27047,-0.7662 0.39761,-1.8355 -0.0568,-2.437 -0.79513,-1.0524 -1.41598,-2.1307 -1.5468,-2.9231 -0.168,-1.0177 -1.83482,-1.5286 -1.99505,-2.658 -0.21324,-1.503 -0.65889,-4.9654 0.38512,-7.532 0.79878,-1.9637 1.64728,-7.22801 3.73341,-10.45648 1.41894,-2.19597 4.94697,-5.03713 7.25524,-5.77299 1.77452,-0.56569 2.11461,0.0133 2.78505,-0.10748 1.36787,-0.24648 3.3156,-0.97816 7.10474,-0.51997 3.73104,0.45115 5.17404,1.34929 7.44598,2.69244 2.72781,1.61265 6.71105,4.52204 7.14165,6.2746 0.16616,0.67627 -0.58546,1.71388 -1.7846,1.48548 0,0 0.80863,4.9437 0.84772,6.2223 0.0259,0.8473 0.97626,2.1819 0.97768,3.5283 0.002,1.655 -0.95193,1.9839 -0.60251,2.743 0.40148,0.8722 2.659,5.1534 2.52811,6.5693 -0.0548,0.5927 -0.88647,1.289 -1.29426,1.4206 -0.4706,0.1518 -2.62009,0.1578 -2.62009,0.1578 0,0 0.72402,1.0154 0.82075,1.6099 0.0683,0.4201 -0.0157,0.8742 -0.1894,1.2627 -0.43425,0.9715 -1.83402,1.856 -2.03655,2.4584 -0.17338,0.5157 0.15879,2.0514 0.007,2.975 -0.14673,0.8929 -0.41826,1.6607 -1.82641,2.0082 -1.12263,0.277 -1.69953,-0.4005 -2.17339,-0.3074 -0.81455,0.1601 -1.33575,0.9256 -2.14656,1.2627 -1.59327,0.6624 -3.49767,0.947 -3.49767,0.947 l 0.64667,1.7308 c 0.8313,1.7371 3.25078,0.948 5.72993,2.0068 1.58723,0.3101 2.60893,1.5499 3.04757,2.7788 -4.89743,8.997 -31.44211,12.6664 -39.7034902,-1.4656 z" />
    </g>
  </g>
</svg>
