<?xml version="1.0" encoding="UTF-8" standalone="no"?>
<!-- Created with Inkscape (http://www.inkscape.org/) -->

<svg
   xmlns:dc="http://purl.org/dc/elements/1.1/"
   xmlns:cc="http://creativecommons.org/ns#"
   xmlns:rdf="http://www.w3.org/1999/02/22-rdf-syntax-ns#"
   xmlns:svg="http://www.w3.org/2000/svg"
   xmlns="http://www.w3.org/2000/svg"
   xmlns:sodipodi="http://sodipodi.sourceforge.net/DTD/sodipodi-0.dtd"
   xmlns:inkscape="http://www.inkscape.org/namespaces/inkscape"
   width="60"
   height="70"
   id="svg2"
   version="1.1"
   inkscape:version="0.48.4 r9939"
   sodipodi:docname="portrait_female.svg">
  <defs
     id="defs4" />
  <sodipodi:namedview
     id="base"
     pagecolor="#ffffff"
     bordercolor="#666666"
     borderopacity="1.0"
     inkscape:pageopacity="0.0"
     inkscape:pageshadow="2"
     inkscape:zoom="3.1011905"
     inkscape:cx="10.936219"
     inkscape:cy="24.948359"
     inkscape:document-units="px"
     inkscape:current-layer="layer1"
     showgrid="false"
     inkscape:window-width="1366"
     inkscape:window-height="691"
     inkscape:window-x="0"
     inkscape:window-y="24"
     inkscape:window-maximized="1" />
  <metadata
     id="metadata7">
    <rdf:RDF>
      <cc:Work
         rdf:about="">
        <dc:format>image/svg+xml</dc:format>
        <dc:type
           rdf:resource="http://purl.org/dc/dcmitype/StillImage" />
        <dc:title />
      </cc:Work>
    </rdf:RDF>
  </metadata>
  <g
     inkscape:label="Layer 1"
     inkscape:groupmode="layer"
     id="layer1"
     transform="translate(0,-982.36211)">
    <g
       id="g3952">
      <rect
         transform="translate(0,982.36211)"
         y="-0.020246152"
         x="0.059867375"
         height="70.035255"
         width="59.968777"
         id="rect3837"
         style="opacity:1;fill:#ffffff;fill-opacity:1;stroke:none" />
      <path
         sodipodi:nodetypes="ccsssssasscssssssassasassssssssassssc"
         inkscape:connector-curvature="0"
         id="path3816"
         d="m 13.382934,1044.8117 c 8.755493,5.0151 17.553893,4.57 26.309383,0.9013 0,0 -0.76859,-2.357 -0.6867,-3.3476 0.0477,-0.5775 0.99762,-0.8137 0.94423,-1.4593 -0.0774,-0.9363 -2.27188,-4.6537 -2.61807,-6.0087 -0.3539,-1.3852 0.6878,-4.1673 2.20298,-5.371 1.33676,-1.0619 4.6151,-0.496 7.00296,-1.554 1.54924,-0.6864 1.61501,-1.2961 1.95162,-2.2229 0.2897,-0.7976 -0.15034,-1.7952 -0.0604,-2.545 0.0763,-0.6363 0.74296,-1.0349 0.77225,-1.5083 0.0281,-0.4535 -0.19,-1.1933 -0.19,-1.1933 0,0 0.8431,-0.4056 0.88606,-0.8225 0.0456,-0.4425 -0.29554,-1.6697 0.0617,-2.2888 0.34661,-0.6007 1.49285,-0.9083 2.37049,-1.2559 0.54976,-0.2179 0.88231,-1.2312 0.64756,-1.7739 -0.97282,-2.249 -3.2594,-5.5462 -3.56327,-6.5992 -0.22234,-0.7704 -0.22737,-3.3541 -0.0783,-4.1745 0.1199,-0.6596 1.07345,-0.6921 1.37955,-1.2258 0.33117,-0.5772 0.553,-1.3684 0.39145,-1.9577 -0.27854,-1.01597 0.40283,-1.74259 0.0755,-2.51475 -0.6682,-1.57607 -4.88797,-5.58757 -8.15601,-7.11697 -3.6537,-1.70989 -7.66318,-2.09152 -11.95137,-1.90354 -4.64455,0.2036 -7.96818,2.59034 -11.342933,4.96687 -2.32604,1.63802 -5.16798,5.21319 -5.85768,6.20719 -0.30902,0.4453 -1.34962,-0.3376 -1.63261,0.1174 -0.43996,0.7074 0.35202,2.0743 -0.30922,2.6845 -0.40825,0.3767 -1.59001,-0.1794 -2.1714896,0.2603 -2.09671,1.5856 -2.24636,4.451 -2.3089,5.4215 -0.077,1.195 1.50113,2.9335 1.7171,5.2392 0.12574,1.3426 2.6697796,2.5564 3.8210296,2.6358 0.82148,0.056 2.12173,-0.7656 2.44763,-0.3103 0.55058,0.7689 2.69648,2.5662 3.92647,3.96 1.106583,1.254 2.509843,2.3818 3.095773,3.9482 0.40265,1.0764 -0.19942,4.7523 -0.69758,5.7873 -0.79442,1.6504 -3.460433,5.9249 -4.065213,7.2493 -0.36446,0.798 0.043,1.5663 -0.33214,2.2096 -0.82922,1.4221 -3.9818,5.5655 -3.9818,5.5655 z"
         style="fill:#000000;fill-opacity:1;stroke:none" />
    </g>
  </g>
</svg>
